<svg xmlns="http://www.w3.org/2000/svg" viewBox="0 0 24 24" width="64" height="64">
  <path d="M19.43 12.98c.04-.32.07-.65.07-.98s-.03-.66-.07-.98l2.11-1.65c.19-.15.24-.42.12-.64l-2-3.46a.5.5 0 0 0-.61-.23l-2.49 1a7.062 7.062 0 0 0-1.69-.98l-.38-2.65a.495.495 0 0 0-.49-.42h-4a.495.495 0 0 0-.49.42l-.38 2.65c-.63.23-1.21.55-1.69.98l-2.49-1a.5.5 0 0 0-.61.23l-2 3.46a.5.5 0 0 0 .12.64l2.11 1.65c-.04.32-.07.65-.07.98s.03.66.07.98l-2.11 1.65a.5.5 0 0 0-.12.64l2 3.46c.13.22.39.28.61.23l2.49-1c.48.43 1.06.75 1.69.98l.38 2.65c.04.23.25.42.49.42h4c.24 0 .45-.19.49-.42l.38-2.65c.63-.23 1.21-.55 1.69-.98l2.49 1a.5.5 0 0 0 .61-.23l2-3.46a.5.5 0 0 0-.12-.64l-2.11-1.65zM12 15.5c-1.93 0-3.5-1.57-3.5-3.5s1.57-3.5 3.5-3.5 3.5 1.57 3.5 3.5-1.57 3.5-3.5 3.5z" fill="#FF9800"/>
</svg>
